<svg xmlns="http://www.w3.org/2000/svg" viewBox="0 0 975.34 114.19"><defs><style>.cls-1{fill:#fff;}</style></defs><g id="Layer_2" data-name="Layer 2"><g id="Layer_1-2" data-name="Layer 1"><path class="cls-1" d="M345.21,85.77a31.64,31.64,0,0,1-9.51,5.68c-4.52,1.9-9.32,2-14.17,2.17a37,37,0,0,1-20.19-5.05c-3.59-2.07-6-5.24-8.34-8.38s-4.77-6.36-5.9-10.25c-2.26-7.7-3.54-15.45-2-23.5.58-3.08.77-6.22,2-9.18,4-9.73,10.59-16.85,20.9-19.59,11.52-3.06,22.91-2.79,33.48,3.7,1.18.73,2.27,1.61,3.54,2.51a5.7,5.7,0,0,0,.36-3.26c-.11-2,1-2.85,2.8-3.05l.25,0c9.11-.21,8.19-.23,8.2,7.46q0,34.29.11,68.57c0,6.71,2.52,9.52,9.19,10.68a2.65,2.65,0,0,1,2.37,1.91,14.07,14.07,0,0,1,.07,6.42,1.9,1.9,0,0,1-2.25,1.56c-4.33-.91-8.88-.82-12.71-3.73a19.05,19.05,0,0,1-7.11-10.69C345.06,95.3,345.69,90.83,345.21,85.77Zm-24.1-3c.65,0,1.9,0,3.15,0,6.41-.26,11.76-2.79,15.5-8a31.34,31.34,0,0,0,4.95-12.57c1.56-7.94.38-15.51-2.47-22.82a20,20,0,0,0-11.41-11.26,25.89,25.89,0,0,0-14.28-1.66,22.74,22.74,0,0,0-12.34,5.82c-5.86,5.59-7.41,13-7.87,20.56a37.71,37.71,0,0,0,3.24,16.66A22.69,22.69,0,0,0,306.47,79C310.64,82.25,315.4,83.15,321.11,82.75Z"/><path class="cls-1" d="M96.27,85.86c8.88,1.67,16.47-.43,23.4-5.64a61.25,61.25,0,0,0,7.71-6.65c1.65-1.73,3-1.19,4.46.19s3,2.37.87,4.57c-6.81,7.08-14.2,13.4-24.24,14.87-5.68.84-11.63,1.17-17.33-.53-5.1-1.52-10-.83-15.13.21a33.07,33.07,0,0,1-17.48-.7c-3.83-1.31-6.18-4.53-6.14-7.92,0-3,3.1-6.33,7.08-7.48a30.42,30.42,0,0,1,22,2c4.53,2.12,6.61,1.48,9.84-2.44a111.55,111.55,0,0,0,8.94-12.84c.86-1.41,1.1-2.18-1.17-2.76-4.06-1-8.26-.26-12.32-1.57-5.76-1.87-11.32-3.9-15-9-5.23-7.1-4.63-16.72,2.4-22.77C79.24,23,85.34,21.23,92,20.08c8.31-1.45,16,.06,23.47,3.32,2.93,1.27,3,4.77.26,6.66-.89.63-1.58.17-2.29-.21A30.61,30.61,0,0,0,96,26.71a24.63,24.63,0,0,0-12.32,4.22c-5.7,4.06-6,12.11-1,17.16,2.75,2.77,6.27,3.76,9.79,4.5a38.11,38.11,0,0,0,9.85,1.25,4.41,4.41,0,0,0,4.27-2.6c2.55-4.72,4.66-9.7,8-14,6.26-7.88,13.76-13.86,24-15.69,4.06-.73,11.71,1.12,13.17,5.79a11.56,11.56,0,0,1-1.08,9.81C145.72,45.3,139,51.53,130,55.07c-2.84,1.12-5.63,2.35-8.57,3.24-2.28.7-3.08,3-4.09,4.83-5,9-12,15.91-20.35,21.72A5.92,5.92,0,0,0,96.27,85.86Zm42.34-57.17A10.57,10.57,0,0,0,133.67,32a42.85,42.85,0,0,0-9.18,15.69c-.2.6-.86,1.18-.16,1.78s1.22-.06,1.82-.3c5.08-2,8.78-5.72,12.38-9.64,2-2.2,2.55-5,3.25-7.65C142.18,30.31,140.65,28.72,138.61,28.69ZM69.46,86.16c1.32,0,2.65,0,4,0a1.15,1.15,0,0,0,1.22-.68c.21-.64-.36-.79-.76-1.08-2.65-1.94-5.65-1.91-8.69-1.53-.82.1-1.79.31-1.71,1.41a2,2,0,0,0,2,1.86C66.8,86.24,68.13,86.16,69.46,86.16Z"/><path class="cls-1" d="M650.57,34.55V87.61c0,3.92,0,4-3.8,3.92-7-.08-6,1-6-6.09q-.08-31.78,0-63.59c0-3.49.06-3.15,3.38-3.59,5.23-.7,8.28,1.34,11,5.81,4.13,6.87,9.22,13.16,13.63,19.87C675,53.5,681.64,62.77,688.1,72.19c.58.84,1,1.72,2.28,1.84.67-.8.32-1.84.32-2.78q0-24.55,0-49.13c0-3.77,0-3.81,3.65-3.77,6.59.06,5.7-.82,5.72,5.67q.06,32,0,64.09c0,3.41-.06,3.14-3.48,3.5-4.56.47-7.55-1.09-10-5-5.53-8.64-11.48-17-17.26-25.5q-9.09-13.33-18.2-26.66Z"/><path class="cls-1" d="M920.22,54.94q0-16.47,0-32.92c0-3.41.29-3.68,3.73-3.68q23,0,46,0c3.43,0,3.47.06,3.5,3.48,0,.58,0,1.16,0,1.74.16,2.24-.87,3.15-3.1,3.12-5.92-.06-11.83,0-17.74,0-6.33,0-12.66,0-19,0-2,0-2.84.74-2.81,2.77.06,5.74.09,11.48,0,17.21,0,2.35.75,3.21,3.18,3.19,11.07-.11,22.15-.06,33.22,0,1.34,0,3.14-.6,3.77,1.11a8.55,8.55,0,0,1-.1,6.31c-.51,1.18-1.87.88-2.92.88q-16.74,0-33.48,0c-3.51,0-3.63.12-3.63,3.66,0,6,.06,12,0,18,0,2.25.78,3.06,3.07,3,12.57-.08,25.14,0,37.72,0,3.39,0,3.72.33,3.77,3.68.08,5.14.08,5.14-5,5.14H923.89c-3.45,0-3.66-.2-3.66-3.69Q920.2,71.4,920.22,54.94Z"/><path class="cls-1" d="M880.31,69.07c.6-.65.38-1.43.38-2.14,0-10.64,0-21.27,0-31.91,0-5.22-2-7.49-7.29-8.29-1.12-.18-2.33-.23-2.32-1.67s1.28-1.72,2.52-1.71c6.83,0,13.66,0,20.48,0,1.05,0,2.27-.15,2.37,1.48s-.83,1.65-2,1.91c-5.08,1.15-7.56,3.65-7.52,9.08.15,17,0,34.07,0,51.11,0,.91,0,1.83,0,2.74s.19,2.29-1.2,2.71a3,3,0,0,1-3.47-1.28c-2.65-3.49-5.3-7-8-10.43q-6.83-8.7-13.75-17.32c-3.74-4.65-7.42-9.36-11.39-13.8-2.43-2.72-4.32-5.83-6.81-8.48-.39-.41-.73-1-1.4-.76s-.38.86-.38,1.34c0,12.88-.09,25.76.11,38.64.07,5,2.15,7,7.27,7.87,1.21.21,2.11.51,2.06,1.94s-1.17,1.41-2.16,1.41q-10.23,0-20.48,0c-1,0-2.07,0-2.07-1.49,0-1.27.73-1.65,1.87-1.84,5.11-.84,7.07-3,7.1-8.21q.12-23.31.07-46.62c0-3.06-3.12-6.12-6.63-6.64-1.15-.17-2.46,0-2.41-1.75.06-2,1.59-1.6,2.74-1.61,4.33,0,8.66,0,13,0a3.91,3.91,0,0,1,3.3,1.39c4.43,5.34,8.94,10.62,13.28,16,5,6.2,9.76,12.54,14.64,18.81,2,2.55,4,5.1,6,7.61C878.74,67.91,879.15,68.93,880.31,69.07Z"/><path class="cls-1" d="M188.27,87.77c-3.36,2.59-6.52,4.36-10.34,5.06-10,1.85-17.44-3.14-17.87-13.47C159.7,70.91,160,62.42,160,54c0-2.75-.52-5.1-3.64-6-1.38-.41-1.39-1.71-1.27-2.92s1-1.67,2.07-1.67c5.49,0,11,0,16.48,0,2,0,2.18,1.36,2.18,2.89q0,10.22,0,20.44c0,3.82,0,7.64,0,11.46a7.54,7.54,0,0,0,.33,2.7c1.28,3.36,2.79,4.63,5.25,4.32,2.76-.35,6.92-4.1,7-6.68.11-8,.21-16.12-.06-24.17-.1-2.86-.61-6.1-4.77-6.42a2,2,0,0,1-1.61-2.45,2.14,2.14,0,0,1,2.31-2.11c5.66,0,11.32,0,17,0,1.85,0,2.48,1,2.48,2.68,0,2.91,0,5.82,0,8.72,0,8.73.09,17.45,0,26.17,0,2.62.92,4.32,3.43,5,1.07.31,1.72.77,1.7,2S208,89.75,207,90a12.21,12.21,0,0,1-2.95.42,51.54,51.54,0,0,0-12.46,2c-2.83.77-3.07.55-3.16-2.44C188.42,89.39,188.35,88.82,188.27,87.77Z"/><path class="cls-1" d="M482,91.52c-3.75,0-7.49,0-11.24,0-1,0-1.89-.07-1.92-1.38s.7-1.7,1.86-1.88c4.1-.62,5.33-2.7,3.82-6.71-1.19-3.17-2.62-6.25-3.95-9.37a3.31,3.31,0,0,0-3.45-2.24c-6.91.08-13.82.09-20.72,0a3.4,3.4,0,0,0-3.57,2.43c-1.32,3.3-2.65,6.59-3.87,9.92s.39,5.61,3.83,5.93c.82.07,1.69,0,2.32.69a1.68,1.68,0,0,1,.35,1.63c-.3,1.07-1.25,1-2.05,1-4.33,0-8.66,0-13,0-1.49,0-3,0-4.49-.05-.69,0-1.34-.21-1.47-1s-.07-1.77.75-1.91c6-1,7-6.34,8.94-10.62,3.72-8.2,7-16.59,10.57-24.88Q450.83,38.8,457,24.63c.48-1.13.92-2.3,2.56-2.3s2.19,1,2.77,2.3c2.89,6.77,6.08,13.41,8.86,20.22,5.06,12.4,10.74,24.52,15.94,36.86,1.39,3.3,3.45,5.81,7.16,6.53,1.18.23,1.36,1.07,1.29,2.07-.08,1.18-1,1.2-1.82,1.2C489.85,91.53,485.94,91.52,482,91.52ZM456.54,63.88c2.74,0,5.48,0,8.22,0,1.63,0,2.28-.6,1.55-2.34-2.79-6.61-5.48-13.26-8.24-19.88-.2-.5-.06-1.37-.82-1.38s-1,.78-1.2,1.4c-2.66,6.74-5.21,13.53-8.65,19.93-.95,1.75-.21,2.26,1.42,2.28C451.39,63.91,454,63.89,456.54,63.88Z"/><path class="cls-1" d="M615.08,84.9a2.38,2.38,0,0,1-1.27,2.18c-2.81,2-5.61,4.12-8.52,6a3.36,3.36,0,0,1-4-.4,11.92,11.92,0,0,1-3.69-4.62c-.7-1.43-1.38-1.53-2.69-.75A77.32,77.32,0,0,1,583.62,93a4.32,4.32,0,0,1-5.18-1c-4.6-4.51-6.77-10-7.23-16.36-.42-5.87-.25-11.52,3-16.68a24.53,24.53,0,0,1,7.82-7.49,90.21,90.21,0,0,0,10.22-7.81,3.46,3.46,0,0,1,4.93-.07,42.9,42.9,0,0,0,11,6.62c1.15.44,2.37.71,3.5,1.19A1.76,1.76,0,0,1,613,53.05a1.8,1.8,0,0,1-1.34,1.88c-2.8.76-3.35,2.75-3.32,5.33.09,6.89,0,13.78.09,20.67.06,3.67.71,3.94,3.8,2a1.63,1.63,0,0,1,1.86-.22A2.22,2.22,0,0,1,615.08,84.9ZM596.3,69.24a31.05,31.05,0,0,1,.06-5.71c.95-5-1.58-7.56-5.74-9.53-2.1-1-3.12-.56-4.21,1.25a27.68,27.68,0,0,0-2.59,23.15c2,6.5,3.94,7.12,9.86,3.81a4.77,4.77,0,0,1,.44-.24,3.55,3.55,0,0,0,2.2-3.78C596.24,75.21,596.3,72.22,596.3,69.24Z"/><path class="cls-1" d="M791,57.38c-.9,21.34-14.75,35.84-35.64,35.79-20.45,0-35.19-15.7-35.21-35.28,0-21.73,15.57-36,36.29-35.87C776.78,22.1,790.47,36.92,791,57.38Zm-6.12.09c.39-17.36-12.7-29.74-29.45-29.81-15.34-.06-29.32,14.42-29.61,30.22-.24,13.26,15.75,30.19,30.37,29.65C770.28,87,786.15,73.85,784.87,57.47Z"/><path class="cls-1" d="M566.11,57.65a37,37,0,0,1-9.37,24.21c-5.65,6.51-12.75,9.72-21.31,10.83-10,1.3-18.76-1-26.49-7.06-5.63-4.45-9.27-10.45-11.62-17.25a27.25,27.25,0,0,1-1.64-9.72c.42-10.27,2.89-19.92,11-27.25a35.46,35.46,0,0,1,22.7-9.22c10.57-.62,19.38,2.71,26.72,10a32.82,32.82,0,0,1,9.13,17.57A38.15,38.15,0,0,1,566.11,57.65Zm-6.13,0a28.78,28.78,0,0,0-28.79-30c-15.87.08-29.32,13-29.73,30.08-.33,13.9,14.44,30.17,30.2,29.82C546.05,87.21,561.21,72.78,560,57.62Z"/><path class="cls-1" d="M806.89,23.35c4.33,0,8.66,0,13,0,1.14,0,2.5-.15,2.5,1.62s-1.29,1.62-2.47,1.7c-4.91.35-7.27,2.47-7.31,7.53-.15,15.29-.19,30.57.06,45.85.05,2.86,0,6.53,4,7.8a17.23,17.23,0,0,0,3.7.39c1.1.1,2,.43,2,1.73.05,1.45-1,1.52-2,1.54-1.49,0-3,0-4.49,0-3.12,0-7,3-7.72,5.9-.31,1.24.66,1.76,1.31,2.47a3,3,0,0,0,3.59,1,15.48,15.48,0,0,0,4.14-2.27c1.23-1,2.3-.93,3.47.23s.48,2.12-.24,3c-2.06,2.61-4.27,4.92-7.71,5.92s-6.8.65-9.28-1.77-3.12-6.27-1.31-10.39a11.54,11.54,0,0,1,.58-1.1c1.63-3,1.63-3-2-3-2.49,0-5,0-7.49,0-1.08,0-2.35,0-2.29-1.57.05-1.4,1.16-1.72,2.32-1.7,3.11,0,5.77-.63,7-4a8.64,8.64,0,0,0,.39-3.18q0-23.67,0-47.35c0-5.38-2.29-6.25-6.51-7.06a6.19,6.19,0,0,0-.75,0c-1.11,0-2.38-.05-2.42-1.51s1.16-1.82,2.43-1.82Z"/><path class="cls-1" d="M227.77,91.54c-4.41,0-8.82,0-13.24,0-.9,0-2.17.39-2.41-1.07s1-1.28,1.82-1.59c3.75-1.49,4-1.79,4-5.8q0-15.08,0-30.17c0-3.23-.81-4.19-4.08-4.78-1.14-.21-1.86-.66-1.86-1.9,0-1.43.89-1.85,2.12-1.84,8,0,16-.14,24,.2a17.2,17.2,0,0,1,11.67,5.52c3.32,3.48,4.39,11.21-2.15,15.17-.62.38-1.83.49-1.7,1.53s1.22,1,2,1.33c7.27,3,7.2,7,6.87,12.44-.27,4.54-3.75,8.25-8.89,9.92a23,23,0,0,1-7.59,1.09C234.77,91.49,231.27,91.54,227.77,91.54Zm.35-13.29V81c0,6.44,0,6.5,6.37,6.21,4.24-.2,7.6-1.7,9.08-6.22a8.25,8.25,0,0,0-4.1-10.26c-2.45-1.15-5.18-1.09-7.76-1.27-2.81-.19-3.55,1-3.58,3.84C228.11,74.94,228.12,76.6,228.12,78.25Zm0-21.16h0v1.49c0,6.68,0,6.68,6.81,6.18a7.75,7.75,0,0,0,6.35-11.14c-2.17-4.14-6.29-4.29-10.29-4.47-1.85-.08-2.76.94-2.81,2.73S228.17,55.35,228.17,57.09Z"/><path class="cls-1" d="M390.21,64.1c0,4-.17,8,.05,12a16.85,16.85,0,0,0,3.23,9.21c3.95,5.34,11.81,3.08,14.38-2.17,1.81-3.7,2.47-7.61,3.28-11.55,1.26-6.08-4.17-20.69-10.64-22.83-1-.34-2-.7-3-1.09a2.2,2.2,0,0,1-1.53-2.74c.24-1.25,1.16-1.49,2.23-1.54a22.14,22.14,0,0,1,22.64,17.33,28.24,28.24,0,0,1-4.24,23.18,19.38,19.38,0,0,1-15.23,8.59c-4.54.33-9.08.31-13.29-2.16-4.54-2.66-6.12-6.87-7.22-11.61-1.53-6.59-.61-13.24-.9-19.85-.05-1.16-.05-2.33-.09-3.49a2,2,0,0,0-1.25-2c-1-.41-1.54.42-2.07,1s-.91,1.39-1.41,2a1.69,1.69,0,0,1-2.25.43c-1-.5-.72-1.26-.34-2.11a32.66,32.66,0,0,1,5.77-8.66c2.24-2.45,5.24-2.32,7.89-1.42,2.92,1,3.66,4,3.84,6.74.27,4.22.07,8.47.07,12.71Z"/><path class="cls-1" d="M16.85,68.6c0,4.66.08,9.31,0,14-.06,2.08,1,3,2.71,3.6,6.16,2.21,13.83-.93,17-6.3.63-1.07,1.24-2.16,1.82-3.26,1.27-2.37,3.79-2.74,5.78-.92a1.46,1.46,0,0,1,.46,1.77c-2.24,5.65-5.07,11-11,13.4a25.71,25.71,0,0,1-22.11-1.19C3.17,85.44.77,77.9.11,69.54-.43,62.71,1,56.23,6,51.2c6.35-6.35,13.88-9.17,23-7.24,4.58,1,7.88,3.55,11.11,6.59,2.23,2.11,3.06,4.87,4.07,7.57.7,1.9-1.11,2.18-2.14,2.76s-2.5,1.07-3.42-.57a44,44,0,0,0-5-7.06C30.34,49.39,23,49.51,19.19,50.79c-1.76.59-2.39,1.79-2.37,3.61C16.89,59.13,16.85,63.87,16.85,68.6Zm-6.21-.25c0-3.24,0-6.48,0-9.72,0-.76.35-1.92-.75-2.1-.94-.16-1.31.83-1.64,1.6-2.94,7-3.11,14,.53,20.81.28.52.49,1.47,1.35,1.16s.51-1.15.52-1.78C10.65,75,10.64,71.67,10.64,68.35Z"/><path class="cls-1" d="M861,18.62c-3.17.83-4.87-.87-6.48-3.32a112.25,112.25,0,0,0-8.79-12c-.58-.67-1.35-1.4-.59-2.38a2.38,2.38,0,0,1,2.51-.73,6.73,6.73,0,0,1,3.18,1.34c3,2.53,6,5,8.8,7.68,1.09,1.07,1.57,1,2.59.15,3-2.61,6.1-5.11,9.11-7.71A6.26,6.26,0,0,1,873.46.38c1.15-.36,2.41-.47,3.19.64s-.19,1.87-.75,2.65c-2.87,4.05-5.85,8-8.63,12.13C865.71,18.1,863.87,19.38,861,18.62Z"/><path class="cls-1" d="M466.57,12.73a15.43,15.43,0,0,1-9.73-3A8.9,8.9,0,0,0,450,8.22,2.85,2.85,0,0,0,447.73,10c-.26.52-.52,1-.8,1.54-.83,1.5-2.24,1.43-3.49,1-1.52-.54-1-1.89-.68-3,2.58-8.1,9.46-10.81,17.95-7.09,1.37.6,2.7,1.28,4.07,1.89,3.18,1.41,5.16.82,7-2A7.75,7.75,0,0,1,473,.71a2.56,2.56,0,0,1,3.24-.25c1.1.7.57,1.65.33,2.65A19.77,19.77,0,0,1,473,9.87,7.19,7.19,0,0,1,466.57,12.73Z"/><path class="cls-1" d="M756.1,37.47c4.91,0,9.82.05,14.73,0,2.31,0,3.4.85,3.23,3.25a18,18,0,0,0,.57,5.91c.36,1.36.46,3-1.44,3.42-1.67.39-2.21-.63-2.69-2.13a7.4,7.4,0,0,0-7.78-5.28c-1.54.05-2.33.62-2.33,2.2,0,8.48.07,17,0,25.42,0,2.13,1.38,2.59,2.91,3.1,1.18.38,2.5.62,2.16,2.4s-1.72,1.29-2.78,1.31c-4.66,0-9.32,0-14,0-1.05,0-2.24.15-2.45-1.43s.68-1.9,1.84-2.13c2.58-.5,3.33-2.07,3.29-4.62-.13-7.73-.09-15.45,0-23.18,0-2.18-.65-3.17-3-3.09-3.89.13-5.62,1.29-6.73,5.28-.38,1.38-.81,2.47-2.42,2.14a2.26,2.26,0,0,1-1.68-2.91,42.87,42.87,0,0,0,.69-7.66c.06-1.84,1.51-2,2.89-2,5,0,10,0,15,0Z"/><path class="cls-1" d="M523.87,37.53c4.11-.62,8.75.14,13.3.93,4.76.82,9,3.77,9.06,10.1,0,5.18-1.5,8.93-6.71,10.51-1.08.33-.86.88-.43,1.45,3,3.86,5.94,7.76,9.07,11.51.67.79,2,1,3.09,1.47s1.6,1,1.24,2.1a1.87,1.87,0,0,1-2,1.46c-2.33,0-4.66,0-7,0a3.21,3.21,0,0,1-2.67-1.57c-2.66-3.49-5.29-7-8-10.49-.9-1.18-1.9-2.3-2.91-3.38a2.07,2.07,0,0,0-2.32-.45c-.85.32-.93,1.09-.93,1.87,0,2.08-.08,4.16,0,6.23.1,1.86.76,3.4,3,3.71a6.52,6.52,0,0,1,1.6.68c1,.44.86,1.31.8,2.14S531.31,77,530.49,77H515c-.92,0-1.62-.29-1.68-1.39s.12-1.78,1.31-2c3.15-.65,3.83-2.75,3.76-5.72-.17-7.39-.1-14.8,0-22.19,0-2.41-.51-4.12-3.35-4.13-1.28,0-1.69-.82-1.69-2a1.83,1.83,0,0,1,2-2.06C518,37.48,520.62,37.53,523.87,37.53ZM526.66,49h0v4.72a1.71,1.71,0,0,0,1.22,1.91c1.68.52,7.17-1.16,8.2-2.59,1.45-2,.95-4.33.6-6.47-.44-2.71-4.42-4.52-8.21-3.93-2.93.46-1.47,2.82-1.8,4.38A10.06,10.06,0,0,0,526.66,49Z"/></g></g></svg>